<svg xmlns="http://www.w3.org/2000/svg" xmlns:xlink="http://www.w3.org/1999/xlink" width="34" height="34"><defs><path id="a" d="M0 0h32v27.414H0z"/></defs><g transform="translate(1 4)" fill="none" fill-rule="evenodd"><mask id="b" fill="#fff"><use xlink:href="#a"/></mask><path fill="#D62B5A" d="M21.68 12.068a1.372 1.372 0 110-2.746 1.372 1.372 0 110 2.746m-6.018 0a1.373 1.373 0 110-2.745 1.373 1.373 0 010 2.745m-6.018 0a1.373 1.373 0 110-2.745 1.373 1.373 0 010 2.745M21.804 0H10.196C4.565 0 0 4.564 0 10.196v.206c0 5.63 4.565 10.195 10.196 10.195h8.589l8.887 6.817-3.478-7.11C28.67 19.227 32 15.208 32 10.402v-.206C32 4.564 27.435 0 21.804 0" mask="url(#b)"/></g></svg>